<?xml version="1.0" encoding="UTF-8" standalone="no"?>
<!DOCTYPE svg PUBLIC "-//W3C//DTD SVG 1.1//EN" "http://www.w3.org/Graphics/SVG/1.1/DTD/svg11.dtd">
<svg width="100%" height="100%" viewBox="0 0 2025 258" version="1.1" xmlns="http://www.w3.org/2000/svg" xmlns:xlink="http://www.w3.org/1999/xlink" xml:space="preserve" xmlns:serif="http://www.serif.com/" style="fill-rule:evenodd;clip-rule:evenodd;stroke-linejoin:round;stroke-miterlimit:2;">
    <g transform="matrix(1,0,0,1,-288.323,-1033.93)">
        <g transform="matrix(1,0,0,1,80,-103.763)">
            <g transform="matrix(0.993827,0,0,0.993827,397.08,-273.955)">
                <rect x="985" y="1469" width="162" height="162" style="fill:none;"/>
                <clipPath id="_clip1">
                    <rect x="985" y="1469" width="162" height="162"/>
                </clipPath>
                <g clip-path="url(#_clip1)">
                    <g transform="matrix(0.402573,-0.402573,0.711499,0.711499,-332.405,789.639)">
                        <path d="M619,1533.28L619,1563.75L619,1470L619,1500.47L911.154,1500.47L911.154,1470L994,1516.88L911.154,1563.75L911.154,1533.28L619,1533.28Z" style="fill:rgb(255,195,0);"/>
                    </g>
                    <g transform="matrix(0.214747,-0.214747,0.711499,0.711499,-145.706,673.391)">
                        <path d="M619,1533.28L619,1563.75L619,1470L619,1500.47L838.694,1500.47L838.694,1470L994,1516.88L838.694,1563.75L838.694,1533.28L619,1533.28Z" style="fill:rgb(255,195,0);"/>
                    </g>
                    <g transform="matrix(0.214747,-0.214747,0.711499,0.711499,-216.141,602.94)">
                        <path d="M619,1533.28L619,1563.75L619,1470L619,1500.47L838.694,1500.47L838.694,1470L994,1516.88L838.694,1563.75L838.694,1533.28L619,1533.28Z" style="fill:rgb(255,195,0);"/>
                    </g>
                </g>
            </g>
            <g transform="matrix(1,0,0,1,-332,62)">
                <g transform="matrix(251.288,0,0,251.288,526,1282)">
                    <rect x="0.057" y="-0.7" width="0.236" height="0.7" style="fill:rgb(255,195,0);fill-rule:nonzero;"/>
                </g>
                <g transform="matrix(251.288,0,0,251.288,613.951,1282)">
                    <path d="M0.43,-0.557C0.497,-0.557 0.552,-0.537 0.593,-0.496C0.634,-0.455 0.654,-0.394 0.654,-0.312L0.654,-0L0.428,-0L0.428,-0.273C0.428,-0.336 0.406,-0.367 0.361,-0.367C0.336,-0.367 0.315,-0.358 0.3,-0.341C0.284,-0.323 0.276,-0.295 0.276,-0.257L0.276,-0L0.05,-0L0.05,-0.547L0.265,-0.547L0.265,-0.493C0.286,-0.514 0.311,-0.53 0.339,-0.541C0.367,-0.552 0.397,-0.557 0.43,-0.557Z" style="fill:rgb(255,195,0);fill-rule:nonzero;"/>
                </g>
                <g transform="matrix(251.288,0,0,251.288,790.355,1282)">
                    <path d="M0.264,0.01C0.217,0.01 0.171,0.005 0.126,-0.005C0.081,-0.015 0.044,-0.028 0.016,-0.044L0.078,-0.193C0.103,-0.178 0.133,-0.166 0.168,-0.157C0.203,-0.148 0.236,-0.144 0.269,-0.144C0.295,-0.144 0.313,-0.146 0.324,-0.151C0.334,-0.155 0.339,-0.161 0.339,-0.17C0.339,-0.179 0.333,-0.185 0.32,-0.188C0.307,-0.191 0.285,-0.195 0.256,-0.198C0.211,-0.203 0.173,-0.21 0.142,-0.219C0.111,-0.227 0.083,-0.243 0.06,-0.267C0.036,-0.291 0.024,-0.325 0.024,-0.37C0.024,-0.405 0.035,-0.437 0.056,-0.465C0.077,-0.493 0.109,-0.515 0.152,-0.532C0.194,-0.549 0.245,-0.557 0.304,-0.557C0.345,-0.557 0.386,-0.553 0.426,-0.546C0.465,-0.538 0.499,-0.527 0.527,-0.512L0.465,-0.363C0.417,-0.39 0.364,-0.403 0.307,-0.403C0.258,-0.403 0.233,-0.394 0.233,-0.377C0.233,-0.368 0.24,-0.362 0.253,-0.359C0.266,-0.355 0.287,-0.351 0.316,-0.348C0.361,-0.343 0.399,-0.336 0.43,-0.327C0.46,-0.318 0.488,-0.302 0.512,-0.278C0.535,-0.254 0.547,-0.22 0.547,-0.175C0.547,-0.141 0.536,-0.11 0.515,-0.082C0.494,-0.054 0.462,-0.032 0.419,-0.015C0.376,0.002 0.325,0.01 0.264,0.01Z" style="fill:rgb(255,195,0);fill-rule:nonzero;"/>
                </g>
                <g transform="matrix(251.288,0,0,251.288,932.333,1282)">
                    <path d="M0.05,-0.547L0.276,-0.547L0.276,-0L0.05,-0L0.05,-0.547ZM0.163,-0.591C0.122,-0.591 0.09,-0.602 0.065,-0.624C0.04,-0.645 0.027,-0.673 0.027,-0.706C0.027,-0.739 0.04,-0.767 0.065,-0.789C0.09,-0.81 0.122,-0.821 0.163,-0.821C0.204,-0.821 0.237,-0.811 0.262,-0.79C0.287,-0.769 0.299,-0.743 0.299,-0.71C0.299,-0.675 0.287,-0.647 0.262,-0.625C0.237,-0.602 0.204,-0.591 0.163,-0.591Z" style="fill:rgb(255,195,0);fill-rule:nonzero;"/>
                </g>
                <g transform="matrix(251.288,0,0,251.288,1014.25,1282)">
                    <path d="M0.661,-0.547L0.661,-0.109C0.661,-0.005 0.632,0.073 0.575,0.126C0.517,0.178 0.435,0.204 0.328,0.204C0.273,0.204 0.222,0.198 0.175,0.187C0.128,0.175 0.087,0.158 0.054,0.136L0.13,-0.018C0.151,-0.002 0.178,0.011 0.211,0.021C0.244,0.031 0.275,0.036 0.305,0.036C0.35,0.036 0.383,0.026 0.404,0.007C0.425,-0.012 0.435,-0.041 0.435,-0.078L0.435,-0.088C0.401,-0.049 0.351,-0.03 0.284,-0.03C0.237,-0.03 0.194,-0.041 0.154,-0.063C0.113,-0.084 0.081,-0.115 0.057,-0.156C0.033,-0.196 0.021,-0.242 0.021,-0.294C0.021,-0.346 0.033,-0.392 0.057,-0.432C0.081,-0.472 0.113,-0.503 0.154,-0.525C0.194,-0.546 0.237,-0.557 0.284,-0.557C0.359,-0.557 0.413,-0.533 0.446,-0.485L0.446,-0.547L0.661,-0.547ZM0.344,-0.206C0.371,-0.206 0.393,-0.214 0.411,-0.231C0.428,-0.247 0.437,-0.268 0.437,-0.294C0.437,-0.32 0.428,-0.341 0.411,-0.357C0.393,-0.373 0.371,-0.381 0.344,-0.381C0.317,-0.381 0.294,-0.373 0.277,-0.357C0.259,-0.341 0.25,-0.32 0.25,-0.294C0.25,-0.268 0.259,-0.247 0.277,-0.231C0.295,-0.214 0.317,-0.206 0.344,-0.206Z" style="fill:rgb(255,195,0);fill-rule:nonzero;"/>
                </g>
                <g transform="matrix(251.288,0,0,251.288,1192.92,1282)">
                    <path d="M0.43,-0.557C0.497,-0.557 0.552,-0.537 0.593,-0.496C0.634,-0.455 0.654,-0.394 0.654,-0.312L0.654,-0L0.428,-0L0.428,-0.273C0.428,-0.336 0.406,-0.367 0.361,-0.367C0.336,-0.367 0.315,-0.358 0.3,-0.341C0.284,-0.323 0.276,-0.295 0.276,-0.257L0.276,-0L0.05,-0L0.05,-0.742L0.276,-0.742L0.276,-0.503C0.318,-0.539 0.369,-0.557 0.43,-0.557Z" style="fill:rgb(255,195,0);fill-rule:nonzero;"/>
                </g>
                <g transform="matrix(251.288,0,0,251.288,1369.32,1282)">
                    <path d="M0.453,-0.019C0.419,0 0.373,0.01 0.314,0.01C0.237,0.01 0.178,-0.008 0.137,-0.046C0.096,-0.083 0.075,-0.138 0.075,-0.212L0.075,-0.352L0,-0.352L0,-0.517L0.075,-0.517L0.075,-0.67L0.301,-0.67L0.301,-0.517L0.413,-0.517L0.413,-0.352L0.301,-0.352L0.301,-0.214C0.301,-0.197 0.305,-0.184 0.314,-0.175C0.323,-0.166 0.334,-0.161 0.348,-0.161C0.367,-0.161 0.384,-0.166 0.399,-0.176L0.453,-0.019Z" style="fill:rgb(255,195,0);fill-rule:nonzero;"/>
                </g>
                <g transform="matrix(251.288,0,0,251.288,1484.92,1282)">
                    <path d="M0.264,0.01C0.217,0.01 0.171,0.005 0.126,-0.005C0.081,-0.015 0.044,-0.028 0.016,-0.044L0.078,-0.193C0.103,-0.178 0.133,-0.166 0.168,-0.157C0.203,-0.148 0.236,-0.144 0.269,-0.144C0.295,-0.144 0.313,-0.146 0.324,-0.151C0.334,-0.155 0.339,-0.161 0.339,-0.17C0.339,-0.179 0.333,-0.185 0.32,-0.188C0.307,-0.191 0.285,-0.195 0.256,-0.198C0.211,-0.203 0.173,-0.21 0.142,-0.219C0.111,-0.227 0.083,-0.243 0.06,-0.267C0.036,-0.291 0.024,-0.325 0.024,-0.37C0.024,-0.405 0.035,-0.437 0.056,-0.465C0.077,-0.493 0.109,-0.515 0.152,-0.532C0.194,-0.549 0.245,-0.557 0.304,-0.557C0.345,-0.557 0.386,-0.553 0.426,-0.546C0.465,-0.538 0.499,-0.527 0.527,-0.512L0.465,-0.363C0.417,-0.39 0.364,-0.403 0.307,-0.403C0.258,-0.403 0.233,-0.394 0.233,-0.377C0.233,-0.368 0.24,-0.362 0.253,-0.359C0.266,-0.355 0.287,-0.351 0.316,-0.348C0.361,-0.343 0.399,-0.336 0.43,-0.327C0.46,-0.318 0.488,-0.302 0.512,-0.278C0.535,-0.254 0.547,-0.22 0.547,-0.175C0.547,-0.141 0.536,-0.11 0.515,-0.082C0.494,-0.054 0.462,-0.032 0.419,-0.015C0.376,0.002 0.325,0.01 0.264,0.01Z" style="fill:rgb(255,195,0);fill-rule:nonzero;"/>
                </g>
            </g>
            <g transform="matrix(1,0,0,1,1097.68,62)">
                <g transform="matrix(251.288,0,0,251.288,526,1282)">
                    <path d="M0.54,-0.087L0.54,-0L0.037,-0L0.037,-0.068L0.322,-0.343C0.357,-0.376 0.38,-0.405 0.392,-0.43C0.404,-0.454 0.41,-0.478 0.41,-0.503C0.41,-0.54 0.397,-0.568 0.372,-0.589C0.346,-0.609 0.309,-0.619 0.261,-0.619C0.184,-0.619 0.124,-0.594 0.082,-0.543L0.014,-0.602C0.041,-0.635 0.077,-0.661 0.122,-0.68C0.166,-0.699 0.215,-0.708 0.27,-0.708C0.343,-0.708 0.402,-0.691 0.445,-0.656C0.488,-0.62 0.51,-0.573 0.51,-0.513C0.51,-0.476 0.502,-0.44 0.486,-0.407C0.47,-0.374 0.44,-0.336 0.395,-0.293L0.181,-0.087L0.54,-0.087Z" style="fill:rgb(255,195,0);fill-rule:nonzero;"/>
                </g>
                <g transform="matrix(251.288,0,0,251.288,669.486,1282)">
                    <path d="M0.334,0.008C0.279,0.008 0.23,-0.006 0.187,-0.035C0.143,-0.063 0.11,-0.104 0.085,-0.158C0.06,-0.212 0.048,-0.276 0.048,-0.35C0.048,-0.424 0.06,-0.488 0.085,-0.542C0.11,-0.596 0.143,-0.637 0.187,-0.666C0.23,-0.694 0.279,-0.708 0.334,-0.708C0.389,-0.708 0.438,-0.694 0.481,-0.666C0.524,-0.637 0.557,-0.596 0.582,-0.542C0.607,-0.488 0.619,-0.424 0.619,-0.35C0.619,-0.276 0.607,-0.212 0.582,-0.158C0.557,-0.104 0.524,-0.063 0.481,-0.035C0.438,-0.006 0.389,0.008 0.334,0.008ZM0.334,-0.081C0.39,-0.081 0.435,-0.104 0.469,-0.15C0.502,-0.196 0.519,-0.263 0.519,-0.35C0.519,-0.437 0.502,-0.504 0.469,-0.55C0.435,-0.596 0.39,-0.619 0.334,-0.619C0.277,-0.619 0.232,-0.596 0.199,-0.55C0.165,-0.504 0.148,-0.437 0.148,-0.35C0.148,-0.263 0.165,-0.196 0.199,-0.15C0.232,-0.104 0.277,-0.081 0.334,-0.081Z" style="fill:rgb(255,195,0);fill-rule:nonzero;"/>
                </g>
                <g transform="matrix(251.288,0,0,251.288,836.341,1282)">
                    <path d="M0.54,-0.087L0.54,-0L0.037,-0L0.037,-0.068L0.322,-0.343C0.357,-0.376 0.38,-0.405 0.392,-0.43C0.404,-0.454 0.41,-0.478 0.41,-0.503C0.41,-0.54 0.397,-0.568 0.372,-0.589C0.346,-0.609 0.309,-0.619 0.261,-0.619C0.184,-0.619 0.124,-0.594 0.082,-0.543L0.014,-0.602C0.041,-0.635 0.077,-0.661 0.122,-0.68C0.166,-0.699 0.215,-0.708 0.27,-0.708C0.343,-0.708 0.402,-0.691 0.445,-0.656C0.488,-0.62 0.51,-0.573 0.51,-0.513C0.51,-0.476 0.502,-0.44 0.486,-0.407C0.47,-0.374 0.44,-0.336 0.395,-0.293L0.181,-0.087L0.54,-0.087Z" style="fill:rgb(255,195,0);fill-rule:nonzero;"/>
                </g>
                <g transform="matrix(251.288,0,0,251.288,979.827,1282)">
                    <path d="M0.334,0.008C0.279,0.008 0.23,-0.006 0.187,-0.035C0.143,-0.063 0.11,-0.104 0.085,-0.158C0.06,-0.212 0.048,-0.276 0.048,-0.35C0.048,-0.424 0.06,-0.488 0.085,-0.542C0.11,-0.596 0.143,-0.637 0.187,-0.666C0.23,-0.694 0.279,-0.708 0.334,-0.708C0.389,-0.708 0.438,-0.694 0.481,-0.666C0.524,-0.637 0.557,-0.596 0.582,-0.542C0.607,-0.488 0.619,-0.424 0.619,-0.35C0.619,-0.276 0.607,-0.212 0.582,-0.158C0.557,-0.104 0.524,-0.063 0.481,-0.035C0.438,-0.006 0.389,0.008 0.334,0.008ZM0.334,-0.081C0.39,-0.081 0.435,-0.104 0.469,-0.15C0.502,-0.196 0.519,-0.263 0.519,-0.35C0.519,-0.437 0.502,-0.504 0.469,-0.55C0.435,-0.596 0.39,-0.619 0.334,-0.619C0.277,-0.619 0.232,-0.596 0.199,-0.55C0.165,-0.504 0.148,-0.437 0.148,-0.35C0.148,-0.263 0.165,-0.196 0.199,-0.15C0.232,-0.104 0.277,-0.081 0.334,-0.081Z" style="fill:rgb(255,195,0);fill-rule:nonzero;"/>
                </g>
            </g>
        </g>
    </g>
</svg>
